<?xml version="1.0" encoding="UTF-8"?>
<svg version="1.1" xmlns="http://www.w3.org/2000/svg" width="683" height="158">
<path d="M0 0 C30.36 0 60.72 0 92 0 C92 1.32 92 2.64 92 4 C95.96 4 99.92 4 104 4 C104.33 5.32 104.66 6.64 105 8 C106.32 8 107.64 8 109 8 C109 9.32 109 10.64 109 12 C110.32 12 111.64 12 113 12 C113 13.32 113 14.64 113 16 C114.32 16 115.64 16 117 16 C117 17.65 117 19.3 117 21 C118.32 21 119.64 21 121 21 C121 24.96 121 28.92 121 33 C122.32 33 123.64 33 125 33 C125 63.36 125 93.72 125 125 C123.68 125 122.36 125 121 125 C121 128.96 121 132.92 121 137 C119.68 137 118.36 137 117 137 C117 138.65 117 140.3 117 142 C115.68 142 114.36 142 113 142 C113 143.32 113 144.64 113 146 C111.68 146 110.36 146 109 146 C109 147.32 109 148.64 109 150 C107.68 150 106.36 150 105 150 C104.67 151.32 104.34 152.64 104 154 C100.04 154 96.08 154 92 154 C92 155.32 92 156.64 92 158 C61.64 158 31.28 158 0 158 C0 156.68 0 155.36 0 154 C-3.96 154 -7.92 154 -12 154 C-12 152.68 -12 151.36 -12 150 C-13.65 149.67 -15.3 149.34 -17 149 C-17 148.01 -17 147.02 -17 146 C-18.32 146 -19.64 146 -21 146 C-21 144.68 -21 143.36 -21 142 C-22.32 141.67 -23.64 141.34 -25 141 C-25 139.68 -25 138.36 -25 137 C-26.32 137 -27.64 137 -29 137 C-29 133.04 -29 129.08 -29 125 C-30.32 125 -31.64 125 -33 125 C-33 94.64 -33 64.28 -33 33 C-31.68 33 -30.36 33 -29 33 C-29 29.04 -29 25.08 -29 21 C-27.68 21 -26.36 21 -25 21 C-24.67 19.35 -24.34 17.7 -24 16 C-23.01 16 -22.02 16 -21 16 C-21 14.68 -21 13.36 -21 12 C-19.68 12 -18.36 12 -17 12 C-16.67 10.68 -16.34 9.36 -16 8 C-14.68 8 -13.36 8 -12 8 C-12 6.68 -12 5.36 -12 4 C-8.04 4 -4.08 4 0 4 C0 2.68 0 1.36 0 0 Z " fill="#E5E8EC" transform="translate(33,0)"/>
<path d="M0 0 C30.36 0 60.72 0 92 0 C92 1.32 92 2.64 92 4 C95.96 4 99.92 4 104 4 C104.33 5.32 104.66 6.64 105 8 C106.32 8 107.64 8 109 8 C109 9.32 109 10.64 109 12 C110.32 12 111.64 12 113 12 C113 13.32 113 14.64 113 16 C114.32 16 115.64 16 117 16 C117 17.65 117 19.3 117 21 C118.32 21 119.64 21 121 21 C121 24.96 121 28.92 121 33 C122.32 33 123.64 33 125 33 C125 63.36 125 93.72 125 125 C123.68 125 122.36 125 121 125 C121 128.96 121 132.92 121 137 C119.68 137 118.36 137 117 137 C117 138.65 117 140.3 117 142 C115.68 142 114.36 142 113 142 C113 143.32 113 144.64 113 146 C111.68 146 110.36 146 109 146 C109 147.32 109 148.64 109 150 C107.68 150 106.36 150 105 150 C104.67 151.32 104.34 152.64 104 154 C100.04 154 96.08 154 92 154 C92 155.32 92 156.64 92 158 C61.64 158 31.28 158 0 158 C0 156.68 0 155.36 0 154 C-3.96 154 -7.92 154 -12 154 C-12 152.68 -12 151.36 -12 150 C-13.65 149.67 -15.3 149.34 -17 149 C-17 148.01 -17 147.02 -17 146 C-18.32 146 -19.64 146 -21 146 C-21 144.68 -21 143.36 -21 142 C-22.32 141.67 -23.64 141.34 -25 141 C-25 139.68 -25 138.36 -25 137 C-26.32 137 -27.64 137 -29 137 C-29 133.04 -29 129.08 -29 125 C-30.32 125 -31.64 125 -33 125 C-33 94.64 -33 64.28 -33 33 C-31.68 33 -30.36 33 -29 33 C-29 29.04 -29 25.08 -29 21 C-27.68 21 -26.36 21 -25 21 C-24.67 19.35 -24.34 17.7 -24 16 C-23.01 16 -22.02 16 -21 16 C-21 14.68 -21 13.36 -21 12 C-19.68 12 -18.36 12 -17 12 C-16.67 10.68 -16.34 9.36 -16 8 C-14.68 8 -13.36 8 -12 8 C-12 6.68 -12 5.36 -12 4 C-8.04 4 -4.08 4 0 4 C0 2.68 0 1.36 0 0 Z M-4 8 C-4 9.32 -4 10.64 -4 12 C-6.97 12 -9.94 12 -13 12 C-13 13.32 -13 14.64 -13 16 C-14.32 16 -15.64 16 -17 16 C-17 18.97 -17 21.94 -17 25 C-18.32 25 -19.64 25 -21 25 C-21 58 -21 91 -21 125 C-19.68 125 -18.36 125 -17 125 C-17 127.64 -17 130.28 -17 133 C-15.68 133 -14.36 133 -13 133 C-12.505 135.475 -12.505 135.475 -12 138 C-9.36 138 -6.72 138 -4 138 C-4 139.32 -4 140.64 -4 142 C29 142 62 142 96 142 C96 140.68 96 139.36 96 138 C98.97 138 101.94 138 105 138 C105 136.35 105 134.7 105 133 C106.32 133 107.64 133 109 133 C109 130.36 109 127.72 109 125 C110.32 125 111.64 125 113 125 C113 92 113 59 113 25 C111.68 25 110.36 25 109 25 C109 22.03 109 19.06 109 16 C107.68 16 106.36 16 105 16 C105 14.68 105 13.36 105 12 C102.03 12 99.06 12 96 12 C96 10.68 96 9.36 96 8 C63 8 30 8 -4 8 Z " fill="#0D101C" transform="translate(33,0)"/>
<path d="M0 0 C8.25 0 16.5 0 25 0 C25 1.32 25 2.64 25 4 C26.32 4 27.64 4 29 4 C29 5.32 29 6.64 29 8 C32.96 8 36.92 8 41 8 C41.33 7.01 41.66 6.02 42 5 C45.465 4.505 45.465 4.505 49 4 C49 2.68 49 1.36 49 0 C57.58 0 66.16 0 75 0 C75 1.32 75 2.64 75 4 C76.32 4 77.64 4 79 4 C79 5.32 79 6.64 79 8 C80.32 8 81.64 8 83 8 C83 9.65 83 11.3 83 13 C84.32 13 85.64 13 87 13 C87 19.6 87 26.2 87 33 C85.68 33 84.36 33 83 33 C83 31.68 83 30.36 83 29 C80.36 29 77.72 29 75 29 C74.505 27.515 74.505 27.515 74 26 C71.98491642 25.26676204 71.98491642 25.26676204 70 25 C70 23.68 70 22.36 70 21 C57.79 21 45.58 21 33 21 C33 22.32 33 23.64 33 25 C31.68 25 30.36 25 29 25 C29 26.32 29 27.64 29 29 C27.68 29 26.36 29 25 29 C25 30.65 25 32.3 25 34 C27.64 33.67 30.28 33.34 33 33 C33 32.01 33 31.02 33 30 C36.96 30 40.92 30 45 30 C45 32.64 45 35.28 45 38 C46.65 38 48.3 38 50 38 C50 36.68 50 35.36 50 34 C59.57 34 69.14 34 79 34 C79 35.32 79 36.64 79 38 C80.32 38 81.64 38 83 38 C83 43.28 83 48.56 83 54 C81.68 54 80.36 54 79 54 C79 55.65 79 57.3 79 59 C77.68 59 76.36 59 75 59 C75 60.32 75 61.64 75 63 C73.68 63 72.36 63 71 63 C71 64.32 71 65.64 71 67 C69.35 67 67.7 67 66 67 C66 68.32 66 69.64 66 71 C63.36 71 60.72 71 58 71 C58 72.32 58 73.64 58 75 C56.68 75 55.36 75 54 75 C54 76.32 54 77.64 54 79 C51.36 79 48.72 79 46 79 C46 80.32 46 81.64 46 83 C40.39 83 34.78 83 29 83 C29 81.68 29 80.36 29 79 C26.36 79 23.72 79 21 79 C21 77.68 21 76.36 21 75 C22.32 75 23.64 75 25 75 C25 73.68 25 72.36 25 71 C28.96 71 32.92 71 37 71 C37 69.68 37 68.36 37 67 C39.97 67 42.94 67 46 67 C46 65.68 46 64.36 46 63 C46.99 63 47.98 63 49 63 C49 61.68 49 60.36 49 59 C46.36 59 43.72 59 41 59 C41 60.32 41 61.64 41 63 C35.39 63 29.78 63 24 63 C24 61.68 24 60.36 24 59 C14.43 59 4.86 59 -5 59 C-5 56.03 -5 53.06 -5 50 C-6.32 50 -7.64 50 -9 50 C-9 48.68 -9 47.36 -9 46 C-10.32 46 -11.64 46 -13 46 C-13 35.11 -13 24.22 -13 13 C-11.68 13 -10.36 13 -9 13 C-9 11.35 -9 9.7 -9 8 C-7.68 8 -6.36 8 -5 8 C-5 6.68 -5 5.36 -5 4 C-3.35 4 -1.7 4 0 4 C0 2.68 0 1.36 0 0 Z " fill="#4AC684" transform="translate(42,33)"/>
<path d="M0 0 C30.36 0 60.72 0 92 0 C92 1.32 92 2.64 92 4 C95.96 4 99.92 4 104 4 C104.33 5.32 104.66 6.64 105 8 C106.32 8 107.64 8 109 8 C109 9.32 109 10.64 109 12 C110.32 12 111.64 12 113 12 C113 13.32 113 14.64 113 16 C114.32 16 115.64 16 117 16 C117 17.65 117 19.3 117 21 C118.32 21 119.64 21 121 21 C121 24.96 121 28.92 121 33 C122.32 33 123.64 33 125 33 C125 63.36 125 93.72 125 125 C123.68 125 122.36 125 121 125 C121 128.96 121 132.92 121 137 C119.68 137 118.36 137 117 137 C117 138.65 117 140.3 117 142 C115.68 142 114.36 142 113 142 C113 139.03 113 136.06 113 133 C114.32 133 115.64 133 117 133 C117 98.68 117 64.36 117 29 C115.68 29 114.36 29 113 29 C113 27.68 113 26.36 113 25 C111.68 25 110.36 25 109 25 C109 22.03 109 19.06 109 16 C107.68 16 106.36 16 105 16 C105 14.68 105 13.36 105 12 C102.03 12 99.06 12 96 12 C96 10.68 96 9.36 96 8 C63 8 30 8 -4 8 C-4 9.32 -4 10.64 -4 12 C-6.97 12 -9.94 12 -13 12 C-13 13.32 -13 14.64 -13 16 C-14.32 16 -15.64 16 -17 16 C-17 18.97 -17 21.94 -17 25 C-18.32 25 -19.64 25 -21 25 C-21 26.32 -21 27.64 -21 29 C-22.32 29 -23.64 29 -25 29 C-25 63.32 -25 97.64 -25 133 C-23.68 133 -22.36 133 -21 133 C-21 135.97 -21 138.94 -21 142 C-22.32 141.67 -23.64 141.34 -25 141 C-25 139.68 -25 138.36 -25 137 C-26.32 137 -27.64 137 -29 137 C-29 133.04 -29 129.08 -29 125 C-30.32 125 -31.64 125 -33 125 C-33 94.64 -33 64.28 -33 33 C-31.68 33 -30.36 33 -29 33 C-29 29.04 -29 25.08 -29 21 C-27.68 21 -26.36 21 -25 21 C-24.67 19.35 -24.34 17.7 -24 16 C-23.01 16 -22.02 16 -21 16 C-21 14.68 -21 13.36 -21 12 C-19.68 12 -18.36 12 -17 12 C-16.67 10.68 -16.34 9.36 -16 8 C-14.68 8 -13.36 8 -12 8 C-12 6.68 -12 5.36 -12 4 C-8.04 4 -4.08 4 0 4 C0 2.68 0 1.36 0 0 Z " fill="#000001" transform="translate(33,0)"/>
<path d="M0 0 C1.65 0 3.3 0 5 0 C6.43088528 2.86177057 5.59991697 4.93375773 5 8 C6.32 8 7.64 8 9 8 C9 10.97 9 13.94 9 17 C10.32 17 11.64 17 13 17 C13 19.64 13 22.28 13 25 C14.32 25 15.64 25 17 25 C17 26.65 17 28.3 17 30 C18.32 30 19.64 30 21 30 C21 31.32 21 32.64 21 34 C22.32 34 23.64 34 25 34 C25 35.32 25 36.64 25 38 C27.97 38 30.94 38 34 38 C34 39.32 34 40.64 34 42 C35.32 42 36.64 42 38 42 C38 44.64 38 47.28 38 50 C44.93 50 51.86 50 59 50 C59 51.32 59 52.64 59 54 C64.28 54.33 69.56 54.66 75 55 C75 57.31 75 59.62 75 62 C73.68 62 72.36 62 71 62 C71 63.65 71 65.3 71 67 C68.36 67 65.72 67 63 67 C63 68.32 63 69.64 63 71 C61.68 71 60.36 71 59 71 C59 72.32 59 73.64 59 75 C56.36 75 53.72 75 51 75 C51 76.32 51 77.64 51 79 C45.39 79 39.78 79 34 79 C34 77.68 34 76.36 34 75 C31.36 75 28.72 75 26 75 C26 73.68 26 72.36 26 71 C27.32 71 28.64 71 30 71 C30 69.68 30 68.36 30 67 C33.96 67 37.92 67 42 67 C42 65.68 42 64.36 42 63 C44.97 63 47.94 63 51 63 C51 61.68 51 60.36 51 59 C51.99 59 52.98 59 54 59 C54 57.68 54 56.36 54 55 C51.36 55 48.72 55 46 55 C46 56.32 46 57.64 46 59 C40.39 59 34.78 59 29 59 C29 57.68 29 56.36 29 55 C19.43 55 9.86 55 0 55 C0 52.03 0 49.06 0 46 C-1.32 46 -2.64 46 -4 46 C-4 44.68 -4 43.36 -4 42 C-5.32 42 -6.64 42 -8 42 C-8 31.11 -8 20.22 -8 9 C-6.68 9 -5.36 9 -4 9 C-4 7.35 -4 5.7 -4 4 C-2.68 4 -1.36 4 0 4 C0 2.68 0 1.36 0 0 Z " fill="#2198CF" transform="translate(37,37)"/>
<path d="M0 0 C3.96 0 7.92 0 12 0 C14.30553879 5.86188308 16.11235724 11.71655474 17.6875 17.8125 C17.91244141 18.65748047 18.13738281 19.50246094 18.36914062 20.37304688 C20 26.61393427 20 26.61393427 20 30 C20.66 30 21.32 30 22 30 C22.08636719 29.41476563 22.17273438 28.82953125 22.26171875 28.2265625 C23.3094025 21.8251187 24.83200746 15.61963249 26.5625 9.375 C26.78446045 8.56885254 27.0064209 7.76270508 27.23510742 6.93212891 C28.87110596 1.12889404 28.87110596 1.12889404 30 0 C31.85287502 -0.07226502 33.70833878 -0.0838122 35.5625 -0.0625 C36.57441406 -0.05347656 37.58632813 -0.04445312 38.62890625 -0.03515625 C39.41136719 -0.02355469 40.19382812 -0.01195312 41 0 C43.45155337 6.24299478 45.3838873 12.5426212 47.1875 19 C47.46013672 19.96550781 47.73277344 20.93101563 48.01367188 21.92578125 C48.67883167 24.2830142 49.34086989 26.64107534 50 29 C52.48117831 21.88514063 54.43667386 14.70379097 56.28125 7.40234375 C56.49007812 6.58894531 56.69890625 5.77554688 56.9140625 4.9375 C57.0992041 4.20402344 57.2843457 3.47054687 57.47509766 2.71484375 C58 1 58 1 59 0 C61.01964199 -0.07244053 63.04167124 -0.08377188 65.0625 -0.0625 C66.16722656 -0.05347656 67.27195312 -0.04445312 68.41015625 -0.03515625 C69.26480469 -0.02355469 70.11945313 -0.01195312 71 0 C70.45035867 6.26653218 69.36780803 11.93134699 67.53125 17.9375 C67.17069519 19.14672119 67.17069519 19.14672119 66.80285645 20.38037109 C66.29880874 22.06538433 65.79107765 23.74929984 65.27978516 25.43212891 C64.49433473 28.01865601 63.72089608 30.60855282 62.94921875 33.19921875 C62.45641854 34.84135287 61.9629533 36.4832876 61.46875 38.125 C61.23643677 38.90093506 61.00412354 39.67687012 60.76477051 40.47631836 C59.11655485 45.88344515 59.11655485 45.88344515 58 47 C55.46950598 47.07313567 52.96695163 47.09247527 50.4375 47.0625 C49.72658203 47.05798828 49.01566406 47.05347656 48.28320312 47.04882812 C46.52209987 47.03700864 44.76103964 47.01907263 43 47 C40.54026635 41.62609511 38.83406658 36.26722545 37.3125 30.5625 C37.08755859 29.73556641 36.86261719 28.90863281 36.63085938 28.05664062 C36.08271029 26.03898546 35.54071336 24.01966057 35 22 C34.82871582 22.68626465 34.65743164 23.3725293 34.48095703 24.07958984 C33.70285275 27.17992298 32.91407024 30.27744055 32.125 33.375 C31.85558594 34.45523438 31.58617187 35.53546875 31.30859375 36.6484375 C31.04433594 37.6796875 30.78007812 38.7109375 30.5078125 39.7734375 C30.26691895 40.72653809 30.02602539 41.67963867 29.77783203 42.66162109 C29 45 29 45 27 47 C23.8125 47.265625 23.8125 47.265625 20 47.25 C18.741875 47.25515625 17.48375 47.2603125 16.1875 47.265625 C13 47 13 47 11 45 C10.29719543 43.22988892 10.29719543 43.22988892 9.65551758 41.07275391 C9.41219193 40.2649649 9.16886627 39.4571759 8.91816711 38.62490845 C8.53521736 37.3139772 8.53521736 37.3139772 8.14453125 35.9765625 C7.87863693 35.07884125 7.61274261 34.18112 7.33879089 33.25619507 C6.7782691 31.35569698 6.22117465 29.45418521 5.66723633 27.55175781 C4.81692831 24.64016328 3.94917878 21.73415724 3.08007812 18.828125 C2.53799059 16.98208526 1.99694029 15.13574056 1.45703125 13.2890625 C1.19565872 12.4191568 0.93428619 11.5492511 0.66499329 10.65298462 C0.43112411 9.8388913 0.19725494 9.02479797 -0.04370117 8.18603516 C-0.25306808 7.47258942 -0.462435 6.75914368 -0.67814636 6.02407837 C-1 4 -1 4 0 0 Z " fill="#D9DDE3" transform="translate(449,55)"/>
<path d="M0 0 C1.093125 0.00257812 2.18625 0.00515625 3.3125 0.0078125 C4.405625 0.00523438 5.49875 0.00265625 6.625 0 C9.3125 0.1328125 9.3125 0.1328125 10.3125 1.1328125 C10.39976223 2.91352496 10.41949041 4.6976439 10.41015625 6.48046875 C10.40693359 7.56005859 10.40371094 8.63964844 10.40039062 9.75195312 C10.39201172 10.88826172 10.38363281 12.02457031 10.375 13.1953125 C10.37048828 14.33548828 10.36597656 15.47566406 10.36132812 16.65039062 C10.3494976 19.47788668 10.3315615 22.30535595 10.3125 25.1328125 C17.9025 25.1328125 25.4925 25.1328125 33.3125 25.1328125 C33.30089844 23.41191406 33.28929687 21.69101562 33.27734375 19.91796875 C33.26796766 17.67708441 33.25886727 15.43619891 33.25 13.1953125 C33.24162109 12.05900391 33.23324219 10.92269531 33.22460938 9.75195312 C33.22138672 8.67236328 33.21816406 7.59277344 33.21484375 6.48046875 C33.20960693 5.48023682 33.20437012 4.48000488 33.19897461 3.44946289 C33.3125 1.1328125 33.3125 1.1328125 34.3125 0.1328125 C36.31049572 0.03407434 38.31207158 0.00309451 40.3125 0.0078125 C41.405625 0.00523438 42.49875 0.00265625 43.625 0 C46.3125 0.1328125 46.3125 0.1328125 47.3125 1.1328125 C47.41165795 3.02980099 47.44049314 4.93050037 47.44189453 6.83007812 C47.44504669 8.04804077 47.44819885 9.26600342 47.45144653 10.52087402 C47.44965675 11.86027055 47.4476058 13.19966674 47.4453125 14.5390625 C47.4459856 15.9028729 47.44695567 17.26668318 47.44821167 18.63049316 C47.44968838 21.49211771 47.44753497 24.3537111 47.44287109 27.21533203 C47.43717381 30.89099864 47.44045296 34.56659224 47.44644356 38.24225616 C47.45004991 41.05943354 47.44891025 43.87659348 47.44631577 46.69377136 C47.4456467 48.04941313 47.44647421 49.40505646 47.44879532 50.76069641 C47.45132301 52.65231294 47.44679014 54.54393499 47.44189453 56.43554688 C47.44109894 57.51396851 47.44030334 58.59239014 47.43948364 59.70349121 C47.3125 62.1328125 47.3125 62.1328125 46.3125 63.1328125 C44.31450428 63.23155066 42.31292842 63.26253049 40.3125 63.2578125 C39.219375 63.26039062 38.12625 63.26296875 37 63.265625 C34.3125 63.1328125 34.3125 63.1328125 33.3125 62.1328125 C33.22501793 60.20613743 33.20552666 58.27629389 33.21484375 56.34765625 C33.21806641 55.17783203 33.22128906 54.00800781 33.22460938 52.80273438 C33.23717773 50.95518555 33.23717773 50.95518555 33.25 49.0703125 C33.25451172 47.83474609 33.25902344 46.59917969 33.26367188 45.32617188 C33.27550382 42.26169837 33.29343992 39.19724957 33.3125 36.1328125 C25.7225 36.1328125 18.1325 36.1328125 10.3125 36.1328125 C10.32410156 37.99808594 10.33570313 39.86335938 10.34765625 41.78515625 C10.35703225 44.21354067 10.36613265 46.64192617 10.375 49.0703125 C10.38337891 50.30201172 10.39175781 51.53371094 10.40039062 52.80273438 C10.40361328 53.97255859 10.40683594 55.14238281 10.41015625 56.34765625 C10.41539307 57.43167725 10.42062988 58.51569824 10.42602539 59.63256836 C10.3125 62.1328125 10.3125 62.1328125 9.3125 63.1328125 C7.31450428 63.23155066 5.31292842 63.26253049 3.3125 63.2578125 C2.219375 63.26039062 1.12625 63.26296875 0 63.265625 C-2.6875 63.1328125 -2.6875 63.1328125 -3.6875 62.1328125 C-3.78665795 60.23582401 -3.81549314 58.33512463 -3.81689453 56.43554688 C-3.82004669 55.21758423 -3.82319885 53.99962158 -3.82644653 52.74475098 C-3.82465675 51.40535445 -3.8226058 50.06595826 -3.8203125 48.7265625 C-3.8209856 47.3627521 -3.82195567 45.99894182 -3.82321167 44.63513184 C-3.82468838 41.77350729 -3.82253497 38.9119139 -3.81787109 36.05029297 C-3.81217381 32.37462636 -3.81545296 28.69903276 -3.82144356 25.02336884 C-3.82504991 22.20619146 -3.82391025 19.38903152 -3.82131577 16.57185364 C-3.8206467 15.21621187 -3.82147421 13.86056854 -3.82379532 12.50492859 C-3.82632301 10.61331206 -3.82179014 8.72169001 -3.81689453 6.83007812 C-3.81609894 5.75165649 -3.81530334 4.67323486 -3.81448364 3.56213379 C-3.63528249 0.1338404 -3.45211048 0.17059848 0 0 Z " fill="#D9DDE3" transform="translate(181.6875,38.8671875)"/>
<path d="M0 0 C1.50046875 0.00386719 1.50046875 0.00386719 3.03125 0.0078125 C4.0315625 0.00523438 5.031875 0.00265625 6.0625 0 C8.53125 0.1328125 8.53125 0.1328125 9.53125 1.1328125 C9.68865605 2.83845028 9.78218392 4.55008494 9.84765625 6.26171875 C9.91049805 7.81342773 9.91049805 7.81342773 9.97460938 9.39648438 C10.01392578 10.48509766 10.05324219 11.57371094 10.09375 12.6953125 C10.13693359 13.78779297 10.18011719 14.88027344 10.22460938 16.00585938 C10.33107068 18.71470814 10.43308516 21.42365242 10.53125 24.1328125 C11.3975 23.483125 12.26375 22.8334375 13.15625 22.1640625 C18.24199459 19.1031977 22.75492169 19.34044922 28.53125 20.1328125 C32.92891458 22.29306878 36.44096736 25.0035414 38.09716797 29.75708008 C38.72828668 33.21119492 38.67360963 36.64588858 38.6640625 40.14453125 C38.66501923 40.91336136 38.66597595 41.68219147 38.66696167 42.47431946 C38.66764056 44.09396446 38.66580663 45.71361222 38.66162109 47.33325195 C38.6562467 49.82183872 38.66158714 52.3102468 38.66796875 54.79882812 C38.66730835 56.37239623 38.66602797 57.94596423 38.6640625 59.51953125 C38.66608673 60.26740402 38.66811096 61.01527679 38.67019653 61.78581238 C38.64621623 67.01784627 38.64621623 67.01784627 37.53125 68.1328125 C35.70009117 68.23132421 33.86505067 68.26253879 32.03125 68.2578125 C31.0309375 68.26039062 30.030625 68.26296875 29 68.265625 C26.53125 68.1328125 26.53125 68.1328125 25.53125 67.1328125 C25.39687692 64.96224307 25.3275881 62.78759201 25.28515625 60.61328125 C25.25220538 59.26757192 25.21899395 57.92186896 25.18554688 56.57617188 C25.13820773 54.44983495 25.09380941 52.3235215 25.05444336 50.19702148 C25.01461239 48.14799257 24.96308176 46.09950797 24.91015625 44.05078125 C24.8851001 42.82125732 24.86004395 41.5917334 24.83422852 40.32495117 C24.54980666 37.32832284 24.21773804 35.59416345 22.53125 33.1328125 C20.27278878 31.9466657 20.27278878 31.9466657 17.53125 32.1328125 C14.95221386 33.62071797 12.64512131 35.01894119 10.53125 37.1328125 C10.38472285 39.33827276 10.30375488 41.54814384 10.25 43.7578125 C10.23159058 44.41990723 10.21318115 45.08200195 10.19421387 45.76416016 C10.13530303 47.88695165 10.08255076 50.00982424 10.03125 52.1328125 C9.96378672 54.92465745 9.89011935 57.71623355 9.8125 60.5078125 C9.76706055 62.37566406 9.76706055 62.37566406 9.72070312 64.28125 C9.53125 67.1328125 9.53125 67.1328125 8.53125 68.1328125 C6.51160801 68.20525303 4.48957876 68.21658438 2.46875 68.1953125 C1.36402344 68.18628906 0.25929688 68.17726563 -0.87890625 68.16796875 C-1.73355469 68.15636719 -2.58820313 68.14476563 -3.46875 68.1328125 C-3.49187611 59.41437247 -3.50966646 50.69594294 -3.52056217 41.97747898 C-3.52579041 37.92955508 -3.53288699 33.88165209 -3.54418945 29.83374023 C-3.55502043 25.93045279 -3.56102728 22.02718551 -3.56362724 18.1238842 C-3.56548111 16.63147603 -3.569101 15.13906902 -3.57448006 13.64666939 C-3.58169331 11.56333111 -3.58274083 9.48007719 -3.58227539 7.39672852 C-3.584496 6.20870132 -3.58671661 5.02067413 -3.58900452 3.79664612 C-3.42593121 0.18430643 -3.42593121 0.18430643 0 0 Z " fill="#D9DDE3" transform="translate(403.46875,33.8671875)"/>
<path d="M0 0 C4.34865553 3.15490696 6.20177622 6.11321554 7.1875 11.3125 C7.28227555 13.91954278 7.32764164 16.49882756 7.3203125 19.10546875 C7.32126923 19.85210281 7.32222595 20.59873688 7.32321167 21.36799622 C7.32389044 22.94056279 7.32205729 24.51313221 7.31787109 26.08569336 C7.31249588 28.50185356 7.31783784 30.91782977 7.32421875 33.33398438 C7.32355836 34.86197958 7.32227801 36.38997467 7.3203125 37.91796875 C7.32233673 38.64396774 7.32436096 39.36996674 7.32644653 40.1179657 C7.30246698 45.19753302 7.30246698 45.19753302 6.1875 46.3125 C4.50141034 46.38455511 2.81249341 46.39636068 1.125 46.375 C0.20589844 46.36597656 -0.71320312 46.35695312 -1.66015625 46.34765625 C-2.37042969 46.33605469 -3.08070313 46.32445312 -3.8125 46.3125 C-4.1425 45.3225 -4.4725 44.3325 -4.8125 43.3125 C-5.72 43.9725 -6.6275 44.6325 -7.5625 45.3125 C-12.71965298 48.24746511 -18.05094816 48.07862223 -23.8125 47.3125 C-27.88223556 46.03936656 -30.26991986 44.08261375 -32.75 40.5625 C-34.4610339 35.32874925 -34.4610339 31.29625075 -32.75 26.0625 C-29.60432204 21.59766677 -25.20758391 19.27624529 -19.8125 18.3125 C-17.3967094 18.24418013 -14.97915287 18.22762358 -12.5625 18.25 C-10.66757812 18.26353516 -10.66757812 18.26353516 -8.734375 18.27734375 C-7.77015625 18.28894531 -6.8059375 18.30054687 -5.8125 18.3125 C-6.8025 15.3425 -7.7925 12.3725 -8.8125 9.3125 C-15.11596351 7.91173033 -18.68550362 8.66367208 -24.515625 11.40234375 C-26.8125 12.3125 -26.8125 12.3125 -30.8125 12.3125 C-31.625 9.125 -31.625 9.125 -31.8125 5.3125 C-25.36769372 -3.4758722 -9.53424919 -4.38539953 0 0 Z M-20.8125 30.3125 C-21.31264953 32.76991537 -21.31264953 32.76991537 -20.8125 35.3125 C-19.27436579 37.34146212 -19.27436579 37.34146212 -16.8125 38.3125 C-13.1934165 38.23549822 -11.0876363 37.46801182 -7.9375 35.6875 C-5.43841811 33.37442285 -5.43841811 33.37442285 -5.5 29.5625 C-5.603125 28.49 -5.70625 27.4175 -5.8125 26.3125 C-14.0518432 25.99536848 -14.0518432 25.99536848 -20.8125 30.3125 Z " fill="#D9DDE3" transform="translate(556.8125,55.6875)"/>
<path d="M0 0 C4.34865553 3.15490696 6.20177622 6.11321554 7.1875 11.3125 C7.28227555 13.91954278 7.32764164 16.49882756 7.3203125 19.10546875 C7.32126923 19.85210281 7.32222595 20.59873688 7.32321167 21.36799622 C7.32389044 22.94056279 7.32205729 24.51313221 7.31787109 26.08569336 C7.31249588 28.50185356 7.31783784 30.91782977 7.32421875 33.33398438 C7.32355836 34.86197958 7.32227801 36.38997467 7.3203125 37.91796875 C7.32233673 38.64396774 7.32436096 39.36996674 7.32644653 40.1179657 C7.30246698 45.19753302 7.30246698 45.19753302 6.1875 46.3125 C4.50141034 46.38455511 2.81249341 46.39636068 1.125 46.375 C0.20589844 46.36597656 -0.71320313 46.35695312 -1.66015625 46.34765625 C-2.37042969 46.33605469 -3.08070313 46.32445312 -3.8125 46.3125 C-4.1425 45.3225 -4.4725 44.3325 -4.8125 43.3125 C-5.72 43.9725 -6.6275 44.6325 -7.5625 45.3125 C-12.71965298 48.24746511 -18.05094816 48.07862223 -23.8125 47.3125 C-27.88223556 46.03936656 -30.26991986 44.08261375 -32.75 40.5625 C-34.4610339 35.32874925 -34.4610339 31.29625075 -32.75 26.0625 C-29.60432204 21.59766677 -25.20758391 19.27624529 -19.8125 18.3125 C-17.3967094 18.24418013 -14.97915287 18.22762358 -12.5625 18.25 C-10.66757812 18.26353516 -10.66757812 18.26353516 -8.734375 18.27734375 C-7.77015625 18.28894531 -6.8059375 18.30054687 -5.8125 18.3125 C-6.8025 15.3425 -7.7925 12.3725 -8.8125 9.3125 C-15.11596351 7.91173033 -18.68550362 8.66367208 -24.515625 11.40234375 C-26.8125 12.3125 -26.8125 12.3125 -30.8125 12.3125 C-31.625 9.125 -31.625 9.125 -31.8125 5.3125 C-25.36769372 -3.4758722 -9.53424919 -4.38539953 0 0 Z M-20.8125 30.3125 C-21.31264953 32.76991537 -21.31264953 32.76991537 -20.8125 35.3125 C-19.27436579 37.34146212 -19.27436579 37.34146212 -16.8125 38.3125 C-13.1934165 38.23549822 -11.0876363 37.46801182 -7.9375 35.6875 C-5.43841811 33.37442285 -5.43841811 33.37442285 -5.5 29.5625 C-5.603125 28.49 -5.70625 27.4175 -5.8125 26.3125 C-14.0518432 25.99536848 -14.0518432 25.99536848 -20.8125 30.3125 Z " fill="#D9DDE3" transform="translate(321.8125,55.6875)"/>
<path d="M0 0 C4.23598449 3.67323293 7.20576433 8.77956043 7.6171875 14.40234375 C7.94217016 20.59867979 7.94217016 20.59867979 7.6171875 23.40234375 C5.6171875 25.40234375 5.6171875 25.40234375 2.81982422 25.62939453 C1.65725098 25.6189209 0.49467773 25.60844727 -0.703125 25.59765625 C-2.58837891 25.58798828 -2.58837891 25.58798828 -4.51171875 25.578125 C-5.83042969 25.56136719 -7.14914062 25.54460937 -8.5078125 25.52734375 C-9.84764971 25.51731358 -11.18749402 25.50818779 -12.52734375 25.5 C-15.81267823 25.4763645 -19.09765715 25.44341609 -22.3828125 25.40234375 C-22.10824219 26.68109375 -21.83367188 27.95984375 -21.55078125 29.27734375 C-21.39633545 29.99664062 -21.24188965 30.7159375 -21.08276367 31.45703125 C-20.47020299 33.72199658 -20.47020299 33.72199658 -17.6953125 35.40234375 C-12.55445455 36.95430087 -8.37338904 36.74374258 -3.2578125 35.33984375 C0.35619452 34.46548721 2.14224246 34.31642343 5.6171875 35.40234375 C5.9296875 38.71484375 5.9296875 38.71484375 5.6171875 42.40234375 C0.50741883 46.66048431 -5.30874427 46.60818425 -11.6953125 46.65234375 C-12.42943359 46.67296875 -13.16355469 46.69359375 -13.91992188 46.71484375 C-21.25675402 46.76692419 -27.014932 44.62111646 -32.3828125 39.40234375 C-36.92195404 31.78307045 -37.40094107 23.34717922 -35.921875 14.7109375 C-34.01828886 7.37653208 -30.75390781 2.57950947 -24.3828125 -1.53515625 C-16.96573301 -4.17821353 -6.82820072 -4.11743434 0 0 Z M-20.3828125 9.40234375 C-22.84506266 12.49479378 -22.84506266 12.49479378 -22.3828125 17.40234375 C-16.7728125 17.40234375 -11.1628125 17.40234375 -5.3828125 17.40234375 C-5.65088388 10.7029524 -5.65088388 10.7029524 -8.6953125 7.96484375 C-13.40916988 5.22422899 -16.22751161 6.44989312 -20.3828125 9.40234375 Z " fill="#D9DDE3" transform="translate(654.3828125,56.59765625)"/>
<path d="M0 0 C4.23598449 3.67323293 7.20576433 8.77956043 7.6171875 14.40234375 C7.94217016 20.59867979 7.94217016 20.59867979 7.6171875 23.40234375 C5.6171875 25.40234375 5.6171875 25.40234375 2.81982422 25.62939453 C1.65725098 25.6189209 0.49467773 25.60844727 -0.703125 25.59765625 C-2.58837891 25.58798828 -2.58837891 25.58798828 -4.51171875 25.578125 C-5.83042969 25.56136719 -7.14914062 25.54460937 -8.5078125 25.52734375 C-9.84764971 25.51731358 -11.18749402 25.50818779 -12.52734375 25.5 C-15.81267823 25.4763645 -19.09765715 25.44341609 -22.3828125 25.40234375 C-22.10824219 26.68109375 -21.83367187 27.95984375 -21.55078125 29.27734375 C-21.39633545 29.99664062 -21.24188965 30.7159375 -21.08276367 31.45703125 C-20.47020299 33.72199658 -20.47020299 33.72199658 -17.6953125 35.40234375 C-12.55445455 36.95430087 -8.37338904 36.74374258 -3.2578125 35.33984375 C0.35619452 34.46548721 2.14224246 34.31642343 5.6171875 35.40234375 C5.9296875 38.71484375 5.9296875 38.71484375 5.6171875 42.40234375 C0.50741883 46.66048431 -5.30874427 46.60818425 -11.6953125 46.65234375 C-12.42943359 46.67296875 -13.16355469 46.69359375 -13.91992188 46.71484375 C-21.25675402 46.76692419 -27.014932 44.62111646 -32.3828125 39.40234375 C-36.92195404 31.78307045 -37.40094107 23.34717922 -35.921875 14.7109375 C-34.01828886 7.37653208 -30.75390781 2.57950947 -24.3828125 -1.53515625 C-16.96573301 -4.17821353 -6.82820072 -4.11743434 0 0 Z M-20.3828125 9.40234375 C-22.84506266 12.49479378 -22.84506266 12.49479378 -22.3828125 17.40234375 C-16.7728125 17.40234375 -11.1628125 17.40234375 -5.3828125 17.40234375 C-5.65088388 10.7029524 -5.65088388 10.7029524 -8.6953125 7.96484375 C-13.40916988 5.22422899 -16.22751161 6.44989312 -20.3828125 9.40234375 Z " fill="#D9DDE3" transform="translate(274.3828125,56.59765625)"/>
<path d="M0 0 C1.65 0 3.3 0 5 0 C5 1.32 5 2.64 5 4 C6.32 4 7.64 4 9 4 C9 5.32 9 6.64 9 8 C9.99 8 10.98 8 12 8 C12 6.68 12 5.36 12 4 C13.32 4 14.64 4 16 4 C16.33 5.32 16.66 6.64 17 8 C19.64 8 22.28 8 25 8 C25 7.01 25 6.02 25 5 C28.96 5 32.92 5 37 5 C37 7.64 37 10.28 37 13 C38.65 13 40.3 13 42 13 C42 11.68 42 10.36 42 9 C51.57 9 61.14 9 71 9 C71 10.32 71 11.64 71 13 C72.32 13 73.64 13 75 13 C75 18.28 75 23.56 75 29 C73.68 29 72.36 29 71 29 C71 30.65 71 32.3 71 34 C69.68 34 68.36 34 67 34 C67 35.32 67 36.64 67 38 C65.68 38 64.36 38 63 38 C63 39.32 63 40.64 63 42 C61.35 42 59.7 42 58 42 C59.98 41.505 59.98 41.505 62 41 C62 38.69 62 36.38 62 34 C61.18015625 34.01160156 60.3603125 34.02320313 59.515625 34.03515625 C58.43796875 34.04417969 57.3603125 34.05320313 56.25 34.0625 C54.64898437 34.07990234 54.64898437 34.07990234 53.015625 34.09765625 C50.46631499 34.01510087 48.42066409 33.74617558 46 33 C46 31.68 46 30.36 46 29 C39.07 29 32.14 29 25 29 C25 26.36 25 23.72 25 21 C23.68 21 22.36 21 21 21 C21 19.68 21 18.36 21 17 C18.03 17 15.06 17 12 17 C12 15.68 12 14.36 12 13 C10.68 13 9.36 13 8 13 C8 11.68 8 10.36 8 9 C6.68 9 5.36 9 4 9 C4 7.35 4 5.7 4 4 C2.68 4 1.36 4 0 4 C0 2.68 0 1.36 0 0 Z " fill="#45C385" transform="translate(50,58)"/>
<path d="M0 0 C3.96 0 7.92 0 12 0 C14.86799199 6.1973566 17.23413603 12.35429715 19.25 18.875 C19.518125 19.71546875 19.78625 20.5559375 20.0625 21.421875 C22 27.61001276 22 27.61001276 22 31 C22.66 31 23.32 31 24 31 C24.25523437 29.75347656 24.51046875 28.50695312 24.7734375 27.22265625 C26.04227628 21.51288175 27.81535101 15.99518217 29.625 10.4375 C29.94984375 9.42880859 30.2746875 8.42011719 30.609375 7.38085938 C31.40263946 4.91940641 32.20081113 2.4595358 33 0 C36.96 0 40.92 0 45 0 C45.992299 3.96919599 46.05933849 4.69502127 44.84423828 8.29370117 C44.42853073 9.54971382 44.42853073 9.54971382 44.00442505 10.83110046 C43.69616791 11.726017 43.38791077 12.62093353 43.0703125 13.54296875 C42.7605246 14.46717117 42.45073669 15.3913736 42.13156128 16.34358215 C41.47556828 18.29442509 40.81456237 20.24358851 40.14892578 22.19116211 C39.12646311 25.18321845 38.1185524 28.17986343 37.11328125 31.17773438 C36.47479769 33.07059583 35.83550261 34.96318379 35.1953125 36.85546875 C34.73899948 38.20695259 34.73899948 38.20695259 34.27346802 39.58573914 C33.99002533 40.41362442 33.70658264 41.2415097 33.41455078 42.09448242 C33.16504669 42.82632248 32.9155426 43.55816254 32.65847778 44.31217957 C32 46 32 46 31 47 C28.35673995 47.20696667 25.7716971 47.32436753 23.125 47.375 C22.02478516 47.43107422 22.02478516 47.43107422 20.90234375 47.48828125 C18.7578125 47.5234375 18.7578125 47.5234375 15 47 C11.99766157 43.0873756 10.62089877 38.47561529 9.08203125 33.84765625 C8.68886971 32.68102699 8.68886971 32.68102699 8.2877655 31.49082947 C7.73770275 29.8520848 7.19074741 28.21229418 6.64672852 26.5715332 C5.81517524 24.07054609 4.96776281 21.57531734 4.11914062 19.08007812 C3.58496455 17.48209574 3.05172969 15.88379836 2.51953125 14.28515625 C2.26645706 13.54435318 2.01338287 12.80355011 1.75263977 12.04029846 C1.40679085 10.98406532 1.40679085 10.98406532 1.05395508 9.90649414 C0.84982498 9.2953627 0.64569489 8.68423126 0.43537903 8.05458069 C0 6 0 6 0 0 Z " fill="#D9DDE3" transform="translate(569,55)"/>
<path d="M0 0 C1.50046875 0.00386719 1.50046875 0.00386719 3.03125 0.0078125 C4.0315625 0.00523438 5.031875 0.00265625 6.0625 0 C8.53125 0.1328125 8.53125 0.1328125 9.53125 1.1328125 C9.67435287 4.8019702 9.57346662 8.45996691 9.53125 12.1328125 C13.16125 12.1328125 16.79125 12.1328125 20.53125 12.1328125 C20.53125 15.4328125 20.53125 18.7328125 20.53125 22.1328125 C16.90125 22.1328125 13.27125 22.1328125 9.53125 22.1328125 C9.86125 31.0428125 10.19125 39.9528125 10.53125 49.1328125 C13.83125 49.1328125 17.13125 49.1328125 20.53125 49.1328125 C20.82421875 55.96875 20.82421875 55.96875 20.53125 58.1328125 C15.64716635 61.38886827 10.24008511 60.70089069 4.53125 60.1328125 C1.05588527 58.94657177 -0.90229646 57.24214789 -2.60107422 53.9152832 C-3.64034413 50.58254286 -3.69481128 47.79076803 -3.6640625 44.30078125 C-3.65439453 42.36235352 -3.65439453 42.36235352 -3.64453125 40.38476562 C-3.62782327 39.0299452 -3.61089342 37.67512749 -3.59375 36.3203125 C-3.58371003 34.94596999 -3.57458596 33.57162047 -3.56640625 32.19726562 C-3.54286242 28.84226933 -3.50997567 25.48763051 -3.46875 22.1328125 C-5.77875 22.1328125 -8.08875 22.1328125 -10.46875 22.1328125 C-10.46875 18.8328125 -10.46875 15.5328125 -10.46875 12.1328125 C-8.15875 12.1328125 -5.84875 12.1328125 -3.46875 12.1328125 C-3.48035156 11.35035156 -3.49195313 10.56789063 -3.50390625 9.76171875 C-3.51292969 8.74980469 -3.52195312 7.73789062 -3.53125 6.6953125 C-3.54285156 5.68597656 -3.55445313 4.67664062 -3.56640625 3.63671875 C-3.43556944 0.28206296 -3.34731824 0.18007725 0 0 Z " fill="#D9DDE3" transform="translate(370.46875,42.8671875)"/>
<path d="M0 0 C2.97 0 5.94 0 9 0 C9 1.32 9 2.64 9 4 C44.64 4 80.28 4 117 4 C117 2.68 117 1.36 117 0 C119.97 0 122.94 0 126 0 C126 1.32 126 2.64 126 4 C124.68 4 123.36 4 122 4 C121.67 5.32 121.34 6.64 121 8 C117.04 8 113.08 8 109 8 C109 9.32 109 10.64 109 12 C78.64 12 48.28 12 17 12 C17 10.68 17 9.36 17 8 C13.04 8 9.08 8 5 8 C5 6.68 5 5.36 5 4 C3.35 3.67 1.7 3.34 0 3 C0 2.01 0 1.02 0 0 Z " fill="#000000" transform="translate(16,146)"/>
<path d="M0 0 C1.50046875 0.00386719 1.50046875 0.00386719 3.03125 0.0078125 C4.0315625 0.00523438 5.031875 0.00265625 6.0625 0 C8.53125 0.1328125 8.53125 0.1328125 9.53125 1.1328125 C9.63064626 3.18294096 9.65924553 5.23652642 9.66064453 7.2890625 C9.66379669 8.60712891 9.66694885 9.92519531 9.67019653 11.28320312 C9.66840675 12.73307325 9.6663558 14.18294308 9.6640625 15.6328125 C9.66473557 17.10872412 9.66570563 18.58463563 9.66696167 20.06054688 C9.66843848 23.15756279 9.66628464 26.25454992 9.66162109 29.3515625 C9.6559238 33.32989799 9.6592029 37.30816602 9.66519356 41.28649902 C9.66879963 44.33529167 9.66766037 47.38406821 9.66506577 50.43286133 C9.66439662 51.90014656 9.66522447 53.36743324 9.66754532 54.8347168 C9.67007257 56.88199843 9.6655406 58.92928516 9.66064453 60.9765625 C9.65984894 62.14380859 9.65905334 63.31105469 9.65823364 64.51367188 C9.53125 67.1328125 9.53125 67.1328125 8.53125 68.1328125 C6.51160801 68.20525303 4.48957876 68.21658438 2.46875 68.1953125 C1.36402344 68.18628906 0.25929688 68.17726563 -0.87890625 68.16796875 C-1.73355469 68.15636719 -2.58820313 68.14476563 -3.46875 68.1328125 C-3.49187611 59.41437247 -3.50966646 50.69594294 -3.52056217 41.97747898 C-3.52579041 37.92955508 -3.53288699 33.88165209 -3.54418945 29.83374023 C-3.55502043 25.93045279 -3.56102728 22.02718551 -3.56362724 18.1238842 C-3.56548111 16.63147603 -3.569101 15.13906902 -3.57448006 13.64666939 C-3.58169331 11.56333111 -3.58274083 9.48007719 -3.58227539 7.39672852 C-3.584496 6.20870132 -3.58671661 5.02067413 -3.58900452 3.79664612 C-3.42593121 0.18430643 -3.42593121 0.18430643 0 0 Z " fill="#D9DDE3" transform="translate(344.46875,33.8671875)"/>
<path d="M0 0 C1.65 0 3.3 0 5 0 C5 1.32 5 2.64 5 4 C11.6 4 18.2 4 25 4 C25 2.68 25 1.36 25 0 C27.97 0 30.94 0 34 0 C34 1.65 34 3.3 34 5 C32.68 5 31.36 5 30 5 C30 5.99 30 6.98 30 8 C33.96 8 37.92 8 42 8 C42 6.68 42 5.36 42 4 C44.64 4 47.28 4 50 4 C50 2.68 50 1.36 50 0 C52.97 0 55.94 0 59 0 C59 1.32 59 2.64 59 4 C64.28 4.33 69.56 4.66 75 5 C75 7.31 75 9.62 75 12 C73.68 12 72.36 12 71 12 C71 13.65 71 15.3 71 17 C68.36 17 65.72 17 63 17 C63 18.32 63 19.64 63 21 C61.68 21 60.36 21 59 21 C59 22.32 59 23.64 59 25 C56.36 25 53.72 25 51 25 C51 26.32 51 27.64 51 29 C45.39 29 39.78 29 34 29 C34 27.68 34 26.36 34 25 C31.36 25 28.72 25 26 25 C26 23.68 26 22.36 26 21 C27.32 21 28.64 21 30 21 C30 19.68 30 18.36 30 17 C33.96 17 37.92 17 42 17 C42 15.68 42 14.36 42 13 C44.97 13 47.94 13 51 13 C51 11.68 51 10.36 51 9 C51.99 9 52.98 9 54 9 C54 7.68 54 6.36 54 5 C51.36 5 48.72 5 46 5 C46 6.32 46 7.64 46 9 C40.39 9 34.78 9 29 9 C29 7.68 29 6.36 29 5 C19.43 5 9.86 5 0 5 C0 3.35 0 1.7 0 0 Z " fill="#2C9FD3" transform="translate(37,87)"/>
<path d="M0 0 C1.32 0 2.64 0 4 0 C4 31.68 4 63.36 4 96 C2.68 96 1.36 96 0 96 C0 64.32 0 32.64 0 0 Z " fill="#141515" transform="translate(146,29)"/>
<path d="M0 0 C30.36 0 60.72 0 92 0 C92 1.32 92 2.64 92 4 C61.64 4 31.28 4 0 4 C0 2.68 0 1.36 0 0 Z " fill="#141414" transform="translate(33,146)"/>
<path d="M0 0 C10.89 0 21.78 0 33 0 C33 1.32 33 2.64 33 4 C35.475 4.495 35.475 4.495 38 5 C38 5.99 38 6.98 38 8 C39.32 8 40.64 8 42 8 C42 9.32 42 10.64 42 12 C37.71 12 33.42 12 29 12 C29 10.68 29 9.36 29 8 C26.36 8 23.72 8 21 8 C21 9.32 21 10.64 21 12 C18.36 12 15.72 12 13 12 C13 10.68 13 9.36 13 8 C11.68 8 10.36 8 9 8 C9 6.68 9 5.36 9 4 C6.03 4 3.06 4 0 4 C0 2.68 0 1.36 0 0 Z " fill="#E7EDEF" transform="translate(79,54)"/>
<path d="M0 0 C1.32 0 2.64 0 4 0 C4 1.32 4 2.64 4 4 C6.97 4 9.94 4 13 4 C13 5.32 13 6.64 13 8 C14.32 8 15.64 8 17 8 C17 9.32 17 10.64 17 12 C19.64 12 22.28 12 25 12 C25 10.68 25 9.36 25 8 C27.64 8 30.28 8 33 8 C33 9.32 33 10.64 33 12 C37.29 12 41.58 12 46 12 C46 10.68 46 9.36 46 8 C47.32 8 48.64 8 50 8 C50 9.32 50 10.64 50 12 C51.32 12 52.64 12 54 12 C54 16.29 54 20.58 54 25 C52.68 25 51.36 25 50 25 C50 22.36 50 19.72 50 17 C48.68 17 47.36 17 46 17 C46 15.68 46 14.36 46 13 C36.43 13 26.86 13 17 13 C17 14.32 17 15.64 17 17 C15.35 17 13.7 17 12 17 C12 14.36 12 11.72 12 9 C8.04 9 4.08 9 0 9 C0 9.99 0 10.98 0 12 C-2.64 12.33 -5.28 12.66 -8 13 C-8 11.35 -8 9.7 -8 8 C-6.68 8 -5.36 8 -4 8 C-4 6.68 -4 5.36 -4 4 C-2.68 4 -1.36 4 0 4 C0 2.68 0 1.36 0 0 Z " fill="#91D6BE" transform="translate(75,54)"/>
<path d="M0 0 C4.29 0 8.58 0 13 0 C13 1.32 13 2.64 13 4 C11.68 4 10.36 4 9 4 C9 5.32 9 6.64 9 8 C11.64 8 14.28 8 17 8 C17 9.32 17 10.64 17 12 C22.61 12 28.22 12 34 12 C34 10.68 34 9.36 34 8 C36.64 8 39.28 8 42 8 C42 6.68 42 5.36 42 4 C43.32 4 44.64 4 46 4 C46 5.65 46 7.3 46 9 C43.36 9 40.72 9 38 9 C38 10.32 38 11.64 38 13 C35.03 13 32.06 13 29 13 C29 14.32 29 15.64 29 17 C26.36 17 23.72 17 21 17 C21 15.68 21 14.36 21 13 C18.03 13 15.06 13 12 13 C12 11.68 12 10.36 12 9 C9.36 8.67 6.72 8.34 4 8 C4 6.68 4 5.36 4 4 C2.68 4 1.36 4 0 4 C0 2.68 0 1.36 0 0 Z " fill="#93BFDA" transform="translate(54,104)"/>
<path d="M0 0 C1.65 0 3.3 0 5 0 C5 1.32 5 2.64 5 4 C7.64 4 10.28 4 13 4 C13 5.32 13 6.64 13 8 C43.36 8 73.72 8 105 8 C105 6.68 105 5.36 105 4 C107.64 4 110.28 4 113 4 C113 2.68 113 1.36 113 0 C114.65 0 116.3 0 118 0 C118 1.65 118 3.3 118 5 C115.03 5 112.06 5 109 5 C109 6.32 109 7.64 109 9 C76 9 43 9 9 9 C9 7.68 9 6.36 9 5 C6.36 5 3.72 5 1 5 C0.67 3.35 0.34 1.7 0 0 Z " fill="#A2A6B2" transform="translate(20,133)"/>
<path d="M0 0 C1.65 0 3.3 0 5 0 C5 1.32 5 2.64 5 4 C11.6 4 18.2 4 25 4 C25 2.68 25 1.36 25 0 C27.97 0 30.94 0 34 0 C34 1.65 34 3.3 34 5 C32.68 5 31.36 5 30 5 C30 5.99 30 6.98 30 8 C33.96 8 37.92 8 42 8 C42 6.68 42 5.36 42 4 C44.64 4 47.28 4 50 4 C50 2.68 50 1.36 50 0 C51.65 0 53.3 0 55 0 C55 2.97 55 5.94 55 9 C54.505 7.02 54.505 7.02 54 5 C51.36 5 48.72 5 46 5 C46 6.32 46 7.64 46 9 C40.39 9 34.78 9 29 9 C29 7.68 29 6.36 29 5 C19.43 5 9.86 5 0 5 C0 3.35 0 1.7 0 0 Z " fill="#70B3D9" transform="translate(37,87)"/>
<path d="M0 0 C1.32 0 2.64 0 4 0 C4 1.32 4 2.64 4 4 C3.01 4 2.02 4 1 4 C1 6.97 1 9.94 1 13 C-0.32 13 -1.64 13 -3 13 C-2.98525131 14.16066986 -2.97050262 15.32133972 -2.95530701 16.5171814 C-2.81722686 27.43587947 -2.68449078 38.35463105 -2.5570364 49.27345848 C-2.49133205 54.88742114 -2.42372078 60.50134755 -2.35180664 66.11523438 C-2.28252253 71.52921627 -2.21817544 76.94323607 -2.15730476 82.35731888 C-2.13316087 84.42667409 -2.10721407 86.49600904 -2.07946587 88.56531906 C-2.04101367 91.45546041 -2.00887413 94.34560625 -1.97827148 97.23583984 C-1.96532547 98.09826797 -1.95237946 98.96069611 -1.93904114 99.84925842 C-1.88594784 105.77189568 -1.88594784 105.77189568 -3 108 C-2.01 108.33 -1.02 108.66 0 109 C-1.32 109 -2.64 109 -4 109 C-4 76 -4 43 -4 9 C-2.68 9 -1.36 9 0 9 C0 6.03 0 3.06 0 0 Z " fill="#D5D7DC" transform="translate(16,16)"/>
<path d="M0 0 C1.65 0 3.3 0 5 0 C5 1.32 5 2.64 5 4 C6.32 4 7.64 4 9 4 C9 5.32 9 6.64 9 8 C9.99 8 10.98 8 12 8 C12 6.68 12 5.36 12 4 C13.32 4 14.64 4 16 4 C16.36923077 8.55384615 16.36923077 8.55384615 14.5 10.8125 C14.005 11.204375 13.51 11.59625 13 12 C14.32 12 15.64 12 17 12 C17 13.32 17 14.64 17 16 C19.64 16 22.28 16 25 16 C25 17.65 25 19.3 25 21 C23.68 21 22.36 21 21 21 C21 19.68 21 18.36 21 17 C18.03 17 15.06 17 12 17 C12 15.68 12 14.36 12 13 C10.68 13 9.36 13 8 13 C8 11.68 8 10.36 8 9 C6.68 9 5.36 9 4 9 C4 7.35 4 5.7 4 4 C2.68 4 1.36 4 0 4 C0 2.68 0 1.36 0 0 Z " fill="#30B598" transform="translate(50,58)"/>
<path d="M0 0 C1.65 0 3.3 0 5 0 C3.68 0.33 2.36 0.66 1 1 C0.87625 2.299375 0.7525 3.59875 0.625 4.9375 C0.4140625 7.15234375 0.4140625 7.15234375 0 9 C-0.99 9.495 -0.99 9.495 -2 10 C-2.40729228 12.32156597 -2.74438677 14.6568787 -3 17 C-4.32 17 -5.64 17 -7 17 C-7 22.61 -7 28.22 -7 34 C-6.01 34 -5.02 34 -4 34 C-4 36.64 -4 39.28 -4 42 C-5.32 42 -6.64 42 -8 42 C-8 31.11 -8 20.22 -8 9 C-6.68 9 -5.36 9 -4 9 C-4 7.35 -4 5.7 -4 4 C-2.68 4 -1.36 4 0 4 C0 2.68 0 1.36 0 0 Z " fill="#60B0D9" transform="translate(37,37)"/>
<path d="M0 0 C2.64 0 5.28 0 8 0 C8 1.32 8 2.64 8 4 C7.01 4 6.02 4 5 4 C5 5.32 5 6.64 5 8 C2.03 8 -0.94 8 -4 8 C-4 9.32 -4 10.64 -4 12 C-5.32 12 -6.64 12 -8 12 C-8 10.68 -8 9.36 -8 8 C-9.32 8 -10.64 8 -12 8 C-12 6.68 -12 5.36 -12 4 C-8.04 4 -4.08 4 0 4 C0 2.68 0 1.36 0 0 Z " fill="#C5D8E5" transform="translate(83,92)"/>
<path d="M0 0 C1.32 0 2.64 0 4 0 C4 1.32 4 2.64 4 4 C5.32 4 6.64 4 8 4 C8 8.29 8 12.58 8 17 C6.68 17 5.36 17 4 17 C4 14.36 4 11.72 4 9 C2.68 9 1.36 9 0 9 C0 6.03 0 3.06 0 0 Z " fill="#A4DACD" transform="translate(121,62)"/>
<path d="M0 0 C1.32 0 2.64 0 4 0 C4 1.32 4 2.64 4 4 C6.97 4 9.94 4 13 4 C13 5.32 13 6.64 13 8 C7.39 8 1.78 8 -4 8 C-4 6.68 -4 5.36 -4 4 C-2.68 4 -1.36 4 0 4 C0 2.68 0 1.36 0 0 Z " fill="#A8DCD4" transform="translate(75,54)"/>
<path d="M0 0 C1.32 0 2.64 0 4 0 C4 6.6 4 13.2 4 20 C2.68 20 1.36 20 0 20 C0 13.4 0 6.8 0 0 Z " fill="#65D384" transform="translate(125,46)"/>
<path d="M0 0 C8.58 0 17.16 0 26 0 C26 1.32 26 2.64 26 4 C27.32 4 28.64 4 30 4 C30 5.32 30 6.64 30 8 C31.32 8.33 32.64 8.66 34 9 C32.35 9 30.7 9 29 9 C29 7.68 29 6.36 29 5 C26.36 5 23.72 5 21 5 C21 3.68 21 2.36 21 1 C15.72 1 10.44 1 5 1 C5 1.99 5 2.98 5 4 C2.36 4.33 -0.28 4.66 -3 5 C-2.01 4.67 -1.02 4.34 0 4 C0 2.68 0 1.36 0 0 Z " fill="#90DBB5" transform="translate(91,33)"/>
<path d="M0 0 C7.92 0 15.84 0 24 0 C24 1.32 24 2.64 24 4 C23.01 4 22.02 4 21 4 C21 5.32 21 6.64 21 8 C21.99 8 22.98 8 24 8 C24.33 7.01 24.66 6.02 25 5 C25 6.32 25 7.64 25 9 C23.35 9 21.7 9 20 9 C20 6.36 20 3.72 20 1 C16.04 1 12.08 1 8 1 C8 1.99 8 2.98 8 4 C5.36 4.33 2.72 4.66 0 5 C0 3.35 0 1.7 0 0 Z " fill="#55C59F" transform="translate(67,62)"/>
<path d="M0 0 C2.64 0 5.28 0 8 0 C8 4.29 8 8.58 8 13 C6.68 13 5.36 13 4 13 C4 10.03 4 7.06 4 4 C2.68 4 1.36 4 0 4 C0 2.68 0 1.36 0 0 Z " fill="#000721" transform="translate(138,12)"/>
<path d="M0 0 C2.64 0 5.28 0 8 0 C8 1.32 8 2.64 8 4 C6.68 4 5.36 4 4 4 C4 6.97 4 9.94 4 13 C2.68 13 1.36 13 0 13 C0 8.71 0 4.42 0 0 Z " fill="#000620" transform="translate(12,12)"/>
<path d="M0 0 C1.65 0 3.3 0 5 0 C5 1.32 5 2.64 5 4 C6.32 4 7.64 4 9 4 C9 5.65 9 7.3 9 9 C6.03 9 3.06 9 0 9 C0 6.03 0 3.06 0 0 Z " fill="#01021B" transform="translate(12,137)"/>
<path d="M0 0 C1.65 0 3.3 0 5 0 C5 2.97 5 5.94 5 9 C4.67 7.68 4.34 6.36 4 5 C1.36 5 -1.28 5 -4 5 C-4 6.32 -4 7.64 -4 9 C-9.28 9 -14.56 9 -20 9 C-20 8.67 -20 8.34 -20 8 C-16.04 8 -12.08 8 -8 8 C-8 6.68 -8 5.36 -8 4 C-5.36 4 -2.72 4 0 4 C0 2.68 0 1.36 0 0 Z " fill="#61BAD9" transform="translate(87,87)"/>
<path d="M0 0 C1.32 0 2.64 0 4 0 C4.04241723 2.33294775 4.04092937 4.66702567 4 7 C3 8 3 8 0.27734375 8.09765625 C-1.37587891 8.08025391 -1.37587891 8.08025391 -3.0625 8.0625 C-4.16722656 8.05347656 -5.27195312 8.04445313 -6.41015625 8.03515625 C-7.69212891 8.01775391 -7.69212891 8.01775391 -9 8 C-9 6.68 -9 5.36 -9 4 C-6.36 3.67 -3.72 3.34 -1 3 C-0.67 2.01 -0.34 1.02 0 0 Z " fill="#6ED0A2" transform="translate(84,38)"/>
<path d="M0 0 C2.64 0 5.28 0 8 0 C8 2.64 8 5.28 8 8 C5.36 8 2.72 8 0 8 C0 5.36 0 2.72 0 0 Z " fill="#76C0DE" transform="translate(75,79)"/>
<path d="M0 0 C1.65 0 3.3 0 5 0 C4.67 2.31 4.34 4.62 4 7 C5.32 7 6.64 7 8 7 C8 8.65 8 10.3 8 12 C6.35 12 4.7 12 3 12 C3 10.68 3 9.36 3 8 C1.68 8 0.36 8 -1 8 C-0.67 5.36 -0.34 2.72 0 0 Z " fill="#2EABC3" transform="translate(38,38)"/>
<path d="M0 0 C1.32 0 2.64 0 4 0 C4 2.97 4 5.94 4 9 C1.36 9 -1.28 9 -4 9 C-4 7.35 -4 5.7 -4 4 C-2.68 4 -1.36 4 0 4 C0 2.68 0 1.36 0 0 Z " fill="#000124" transform="translate(142,137)"/>
<path d="M0 0 C1.65 0 3.3 0 5 0 C5 1.65 5 3.3 5 5 C3.68 5 2.36 5 1 5 C1 6.32 1 7.64 1 9 C-0.32 9 -1.64 9 -3 9 C-3 10.32 -3 11.64 -3 13 C-4.65 13 -6.3 13 -8 13 C-6.68 12.67 -5.36 12.34 -4 12 C-4 9.69 -4 7.38 -4 5 C-2.68 4.67 -1.36 4.34 0 4 C0 2.68 0 1.36 0 0 Z " fill="#65C6B5" transform="translate(116,87)"/>
<path d="M0 0 C4.29 0 8.58 0 13 0 C13 1.32 13 2.64 13 4 C8.71 4 4.42 4 0 4 C0 2.68 0 1.36 0 0 Z " fill="#72CEB4" transform="translate(87,50)"/>
<path d="M0 0 C1.65 0 3.3 0 5 0 C3.68 0.33 2.36 0.66 1 1 C0.87625 2.299375 0.7525 3.59875 0.625 4.9375 C0.4140625 7.15234375 0.4140625 7.15234375 0 9 C-0.99 9.495 -0.99 9.495 -2 10 C-2.33 10.99 -2.66 11.98 -3 13 C-4.65 13 -6.3 13 -8 13 C-8 11.68 -8 10.36 -8 9 C-6.68 9 -5.36 9 -4 9 C-4 7.35 -4 5.7 -4 4 C-2.68 4 -1.36 4 0 4 C0 2.68 0 1.36 0 0 Z " fill="#6CBEDA" transform="translate(37,37)"/>
<path d="M0 0 C1.32 0 2.64 0 4 0 C4 3.96 4 7.92 4 12 C2.68 12 1.36 12 0 12 C0 8.04 0 4.08 0 0 Z " fill="#080828" transform="translate(129,138)"/>
<path d="M0 0 C1.32 0 2.64 0 4 0 C4 3.96 4 7.92 4 12 C2.68 12 1.36 12 0 12 C0 8.04 0 4.08 0 0 Z " fill="#080828" transform="translate(25,138)"/>
<path d="M0 0 C8.25 0 16.5 0 25 0 C25 1.32 25 2.64 25 4 C26.32 4.33 27.64 4.66 29 5 C26.36 5 23.72 5 21 5 C20.67 3.68 20.34 2.36 20 1 C13.4 1 6.8 1 0 1 C0 0.67 0 0.34 0 0 Z " fill="#76D0B0" transform="translate(42,33)"/>
<path d="M0 0 C2.64 0 5.28 0 8 0 C8 1.32 8 2.64 8 4 C10.97 4 13.94 4 17 4 C17 4.33 17 4.66 17 5 C14.91673869 5.02709444 12.83337559 5.04643873 10.75 5.0625 C9.00976562 5.07990234 9.00976562 5.07990234 7.234375 5.09765625 C4.59022872 5.01782092 2.50173909 4.78643778 0 4 C0 2.68 0 1.36 0 0 Z " fill="#38B9A3" transform="translate(96,87)"/>
<path d="M0 0 C2.64 0 5.28 0 8 0 C8 1.32 8 2.64 8 4 C7.01 4 6.02 4 5 4 C5 5.32 5 6.64 5 8 C3.35 8 1.7 8 0 8 C1.32 7.67 2.64 7.34 4 7 C4 6.01 4 5.02 4 4 C2.68 4 1.36 4 0 4 C0 2.68 0 1.36 0 0 Z " fill="#AAD1E3" transform="translate(83,92)"/>
<path d="M0 0 C1.65 0 3.3 0 5 0 C5 1.32 5 2.64 5 4 C5.99 4 6.98 4 8 4 C8 5.65 8 7.3 8 9 C6.68 9 5.36 9 4 9 C4 7.35 4 5.7 4 4 C2.68 4 1.36 4 0 4 C0 2.68 0 1.36 0 0 Z " fill="#2AAEA9" transform="translate(50,58)"/>
<path d="M0 0 C0.33 0 0.66 0 1 0 C0.67 2.64 0.34 5.28 0 8 C-2.64 8 -5.28 8 -8 8 C-8 6.68 -8 5.36 -8 4 C-5.36 4 -2.72 4 0 4 C0 2.68 0 1.36 0 0 Z " fill="#A8D0E2" transform="translate(108,100)"/>
<path d="M0 0 C3.3 0 6.6 0 10 0 C9.67 1.32 9.34 2.64 9 4 C6.03 4 3.06 4 0 4 C0 2.68 0 1.36 0 0 Z " fill="#B9D3E3" transform="translate(46,92)"/>
<path d="M0 0 C1.65 0 3.3 0 5 0 C5 1.32 5 2.64 5 4 C6.32 4 7.64 4 9 4 C9 5.32 9 6.64 9 8 C7.68 8 6.36 8 5 8 C4.67 7.01 4.34 6.02 4 5 C1.98491642 4.26676204 1.98491642 4.26676204 0 4 C0 2.68 0 1.36 0 0 Z " fill="#71D0A8" transform="translate(112,54)"/>
<path d="M0 0 C2.97 0 5.94 0 9 0 C9 1.32 9 2.64 9 4 C6.03 4 3.06 4 0 4 C0 2.68 0 1.36 0 0 Z " fill="#35B5A4" transform="translate(83,83)"/>
<path d="M0 0 C1.32 0 2.64 0 4 0 C4 1.32 4 2.64 4 4 C5.32 4 6.64 4 8 4 C8 5.32 8 6.64 8 8 C6.35 8 4.7 8 3 8 C3 6.68 3 5.36 3 4 C2.01 4 1.02 4 0 4 C0 2.68 0 1.36 0 0 Z " fill="#4CB2D1" transform="translate(67,75)"/>
<path d="M0 0 C2.64 0 5.28 0 8 0 C8 1.32 8 2.64 8 4 C5.36 4 2.72 4 0 4 C0 2.68 0 1.36 0 0 Z " fill="#08082A" transform="translate(8,129)"/>
<path d="M0 0 C2.64 0 5.28 0 8 0 C8 1.32 8 2.64 8 4 C5.36 4 2.72 4 0 4 C0 2.68 0 1.36 0 0 Z " fill="#05141A" transform="translate(8,125)"/>
<path d="M0 0 C2.64 0 5.28 0 8 0 C8 1.32 8 2.64 8 4 C5.36 4 2.72 4 0 4 C0 2.68 0 1.36 0 0 Z " fill="#B7CFDE" transform="translate(75,117)"/>
<path d="M0 0 C1.32 0 2.64 0 4 0 C4 1.65 4 3.3 4 5 C-1.28 5 -6.56 5 -12 5 C-12 4.67 -12 4.34 -12 4 C-8.04 4 -4.08 4 0 4 C0 2.68 0 1.36 0 0 Z " fill="#49ABD7" transform="translate(79,91)"/>
<path d="M0 0 C2.64 0 5.28 0 8 0 C8 1.32 8 2.64 8 4 C5.36 4 2.72 4 0 4 C0 2.68 0 1.36 0 0 Z " fill="#C5DEE3" transform="translate(75,79)"/>
<path d="M0 0 C2.64 0 5.28 0 8 0 C8 1.32 8 2.64 8 4 C5.36 4 2.72 4 0 4 C0 2.68 0 1.36 0 0 Z " fill="#79C9C0" transform="translate(75,75)"/>
<path d="M0 0 C2.64 0 5.28 0 8 0 C8 1.32 8 2.64 8 4 C5.36 4 2.72 4 0 4 C0 2.68 0 1.36 0 0 Z " fill="#43BD9B" transform="translate(75,71)"/>
<path d="M0 0 C1.32 0 2.64 0 4 0 C4 2.64 4 5.28 4 8 C2.68 8 1.36 8 0 8 C0 5.36 0 2.72 0 0 Z " fill="#BAE0DA" transform="translate(121,62)"/>
<path d="M0 0 C2.64 0 5.28 0 8 0 C8 1.32 8 2.64 8 4 C5.36 4 2.72 4 0 4 C0 2.68 0 1.36 0 0 Z " fill="#B0DDD7" transform="translate(100,62)"/>
<path d="M0 0 C1.32 0 2.64 0 4 0 C4 2.64 4 5.28 4 8 C2.68 8 1.36 8 0 8 C0 5.36 0 2.72 0 0 Z " fill="#77D6A2" transform="translate(125,46)"/>
<path d="M0 0 C2.64 0 5.28 0 8 0 C8 1.32 8 2.64 8 4 C5.36 4 2.72 4 0 4 C0 2.68 0 1.36 0 0 Z " fill="#85D3C1" transform="translate(75,42)"/>
<path d="M0 0 C2.31 0 4.62 0 7 0 C7 0.99 7 1.98 7 3 C6.01 3 5.02 3 4 3 C4 4.65 4 6.3 4 8 C3.67 6.68 3.34 5.36 3 4 C2.01 4 1.02 4 0 4 C0 2.68 0 1.36 0 0 Z " fill="#8FC4DF" transform="translate(63,88)"/>
<path d="M0 0 C1.32 0 2.64 0 4 0 C4 0.99 4 1.98 4 3 C5.65 3 7.3 3 9 3 C9 4.32 9 5.64 9 7 C10.32 7.33 11.64 7.66 13 8 C11.35 8 9.7 8 8 8 C8 6.68 8 5.36 8 4 C5.36 4 2.72 4 0 4 C0 2.68 0 1.36 0 0 Z " fill="#82D9A5" transform="translate(112,34)"/>
<path d="M0 0 C2.64 0 5.28 0 8 0 C8 1.98 8 3.96 8 6 C6.35 5.67 4.7 5.34 3 5 C3 3.68 3 2.36 3 1 C2.01 0.67 1.02 0.34 0 0 Z " fill="#EEEFF1" transform="translate(126,12)"/>
<path d="M0 0 C1.32 0 2.64 0 4 0 C4 2.31 4 4.62 4 7 C2.68 7 1.36 7 0 7 C0 4.69 0 2.38 0 0 Z " fill="#45B7D1" transform="translate(108,92)"/>
<path d="M0 0 C1.32 0 2.64 0 4 0 C4 1.32 4 2.64 4 4 C3.01 4 2.02 4 1 4 C1 5.32 1 6.64 1 8 C1.99 8 2.98 8 4 8 C4.33 7.01 4.66 6.02 5 5 C5 6.32 5 7.64 5 9 C3.35 9 1.7 9 0 9 C0 6.03 0 3.06 0 0 Z " fill="#6ACAAF" transform="translate(87,62)"/>
<path d="M0 0 C1.65 0 3.3 0 5 0 C5 1.65 5 3.3 5 5 C3.35 5 1.7 5 0 5 C0 3.35 0 1.7 0 0 Z " fill="#02171C" transform="translate(133,141)"/>
<path d="M0 0 C1.65 0 3.3 0 5 0 C5 1.65 5 3.3 5 5 C3.35 5 1.7 5 0 5 C0 3.35 0 1.7 0 0 Z " fill="#8A8D98" transform="translate(133,133)"/>
<path d="M0 0 C1.65 0 3.3 0 5 0 C5 1.65 5 3.3 5 5 C3.35 4.67 1.7 4.34 0 4 C0 2.68 0 1.36 0 0 Z " fill="#80838F" transform="translate(20,133)"/>
<path d="M0 0 C1.32 0 2.64 0 4 0 C4 1.65 4 3.3 4 5 C1.36 5 -1.28 5 -4 5 C-2.68 4.67 -1.36 4.34 0 4 C0 2.68 0 1.36 0 0 Z " fill="#B5D1E1" transform="translate(96,108)"/>
<path d="M0 0 C2.64 0 5.28 0 8 0 C8 1.65 8 3.3 8 5 C6.68 5 5.36 5 4 5 C4 3.68 4 2.36 4 1 C2.68 0.67 1.36 0.34 0 0 Z " fill="#32B697" transform="translate(67,74)"/>
<path d="M0 0 C2.64 0 5.28 0 8 0 C8 0.99 8 1.98 8 3 C5.36 3 2.72 3 0 3 C0 2.01 0 1.02 0 0 Z " fill="#A1D9D2" transform="translate(79,59)"/>
<path d="M0 0 C2.64 0 5.28 0 8 0 C8 0.99 8 1.98 8 3 C5.36 3 2.72 3 0 3 C0 2.01 0 1.02 0 0 Z " fill="#D8E8E9" transform="translate(71,59)"/>
<path d="M0 0 C1.32 0 2.64 0 4 0 C4 1.32 4 2.64 4 4 C2.68 4 1.36 4 0 4 C-0.33 5.32 -0.66 6.64 -1 8 C-1.04241723 5.66705225 -1.04092937 3.33297433 -1 1 C-0.67 0.67 -0.34 0.34 0 0 Z " fill="#67AED5" transform="translate(63,104)"/>
<path d="M0 0 C1.32 0 2.64 0 4 0 C4 1.32 4 2.64 4 4 C5.32 4.33 6.64 4.66 8 5 C5.36 5 2.72 5 0 5 C0 3.35 0 1.7 0 0 Z " fill="#39B1C9" transform="translate(92,87)"/>
<path d="M0 0 C1.65 0 3.3 0 5 0 C4.67 1.32 4.34 2.64 4 4 C1.36 4 -1.28 4 -4 4 C-2.68 3.67 -1.36 3.34 0 3 C0 2.01 0 1.02 0 0 Z " fill="#62CF8F" transform="translate(96,34)"/>
<path d="M0 0 C1.32 0 2.64 0 4 0 C4 1.65 4 3.3 4 5 C2.68 5 1.36 5 0 5 C0 3.35 0 1.7 0 0 Z " fill="#01191A" transform="translate(21,141)"/>
<path d="M0 0 C1.65 0 3.3 0 5 0 C5 1.32 5 2.64 5 4 C3.35 4 1.7 4 0 4 C0 2.68 0 1.36 0 0 Z " fill="#020433" transform="translate(12,137)"/>
<path d="M0 0 C2.64 0 5.28 0 8 0 C6.68 0.33 5.36 0.66 4 1 C4 1.99 4 2.98 4 4 C2.68 4 1.36 4 0 4 C0 2.68 0 1.36 0 0 Z " fill="#C2C6CD" transform="translate(125,137)"/>
<path d="M0 0 C2.64 0 5.28 0 8 0 C8 1.32 8 2.64 8 4 C6.68 4 5.36 4 4 4 C4 3.01 4 2.02 4 1 C2.68 0.67 1.36 0.34 0 0 Z " fill="#C0C4CC" transform="translate(25,137)"/>
<path d="M0 0 C1.65 0 3.3 0 5 0 C5 1.32 5 2.64 5 4 C3.35 4 1.7 4 0 4 C0 2.68 0 1.36 0 0 Z " fill="#01191A" transform="translate(12,133)"/>
<path d="M0 0 C1.32 0 2.64 0 4 0 C4 1.65 4 3.3 4 5 C2.68 5 1.36 5 0 5 C0 3.35 0 1.7 0 0 Z " fill="#9CC6DD" transform="translate(88,112)"/>
<path d="M0 0 C1.32 0 2.64 0 4 0 C4 1.65 4 3.3 4 5 C2.68 5 1.36 5 0 5 C0 3.35 0 1.7 0 0 Z " fill="#4EB5DB" transform="translate(104,99)"/>
<path d="M0 0 C1.65 0 3.3 0 5 0 C5 1.32 5 2.64 5 4 C3.35 4 1.7 4 0 4 C0 2.68 0 1.36 0 0 Z " fill="#2AAAB4" transform="translate(62,71)"/>
<path d="M0 0 C1.65 0 3.3 0 5 0 C5 1.32 5 2.64 5 4 C3.35 4 1.7 4 0 4 C0 2.68 0 1.36 0 0 Z " fill="#67CDA4" transform="translate(116,67)"/>
<path d="M0 0 C1.32 0 2.64 0 4 0 C4 1.65 4 3.3 4 5 C2.68 5 1.36 5 0 5 C0 3.35 0 1.7 0 0 Z " fill="#B7DED7" transform="translate(67,62)"/>
<path d="M0 0 C1.32 0 2.64 0 4 0 C4 1.65 4 3.3 4 5 C2.68 5 1.36 5 0 5 C0 3.35 0 1.7 0 0 Z " fill="#2DB39B" transform="translate(42,45)"/>
<path d="M0 0 C1.65 0 3.3 0 5 0 C5 1.32 5 2.64 5 4 C3.35 4 1.7 4 0 4 C0 2.68 0 1.36 0 0 Z " fill="#E7F3F2" transform="translate(104,29)"/>
<path d="M0 0 C1.65 0 3.3 0 5 0 C5 1.32 5 2.64 5 4 C3.35 4 1.7 4 0 4 C0 2.68 0 1.36 0 0 Z " fill="#C2C2C9" transform="translate(20,12)"/>
<path d="M0 0 C1.65 0 3.3 0 5 0 C4.67 1.32 4.34 2.64 4 4 C2.68 4 1.36 4 0 4 C0 2.68 0 1.36 0 0 Z " fill="#238ECA" transform="translate(63,108)"/>
<path d="M0 0 C1.65 0 3.3 0 5 0 C5 1.32 5 2.64 5 4 C3.68 4 2.36 4 1 4 C0.67 2.68 0.34 1.36 0 0 Z " fill="#A1DBC9" transform="translate(116,58)"/>
<path d="M0 0 C1.65 0 3.3 0 5 0 C4.67 1.32 4.34 2.64 4 4 C2.68 4 1.36 4 0 4 C0 2.68 0 1.36 0 0 Z " fill="#5CCC99" transform="translate(100,50)"/>
<path d="M0 0 C1.65 0 3.3 0 5 0 C4.67 1.32 4.34 2.64 4 4 C2.68 4 1.36 4 0 4 C0 2.68 0 1.36 0 0 Z " fill="#33B69D" transform="translate(38,38)"/>
<path d="M0 0 C1.32 0 2.64 0 4 0 C4 1.32 4 2.64 4 4 C2.68 4.33 1.36 4.66 0 5 C0 3.35 0 1.7 0 0 Z " fill="#F1F2F4" transform="translate(17,21)"/>
</svg>
